<mxfile host="www.draw.io" modified="2019-11-13T08:29:39.630Z" agent="Mozilla/5.0 (Windows NT 10.0; WOW64) AppleWebKit/537.36 (KHTML, like Gecko) Chrome/75.0.3770.90 Safari/537.36" etag="ttObyU-ePVn-GT9twy4E" version="12.2.4" type="github" pages="1">
  <diagram name="Page-1" id="13e1069c-82ec-6db2-03f1-153e76fe0fe0">
    <mxGraphModel dx="1860" dy="782" grid="0" gridSize="10" guides="1" tooltips="1" connect="1" arrows="1" fold="1" page="0" pageScale="1" pageWidth="1100" pageHeight="850" background="#ffffff" math="0" shadow="0">
      <root>
        <mxCell id="0"/>
        <mxCell id="1" parent="0"/>
        <mxCell id="NhgH__GdJye5LMjhZpeJ-1" value="SqlParseHandle" style="shape=umlLifeline;perimeter=lifelinePerimeter;whiteSpace=wrap;html=1;container=1;collapsible=0;recursiveResize=0;outlineConnect=0;" parent="1" vertex="1">
          <mxGeometry x="150" y="20" width="100" height="1430" as="geometry"/>
        </mxCell>
        <mxCell id="NhgH__GdJye5LMjhZpeJ-5" value="" style="html=1;points=[];perimeter=orthogonalPerimeter;" parent="NhgH__GdJye5LMjhZpeJ-1" vertex="1">
          <mxGeometry x="45" y="70" width="10" height="919" as="geometry"/>
        </mxCell>
        <mxCell id="NhgH__GdJye5LMjhZpeJ-7" value="return" style="html=1;verticalAlign=bottom;endArrow=open;dashed=1;endSize=8;exitX=0;exitY=0.95;" parent="NhgH__GdJye5LMjhZpeJ-1" source="NhgH__GdJye5LMjhZpeJ-5" edge="1">
          <mxGeometry relative="1" as="geometry">
            <mxPoint x="-73" y="943" as="targetPoint"/>
          </mxGeometry>
        </mxCell>
        <mxCell id="NhgH__GdJye5LMjhZpeJ-2" value="Actor" style="shape=umlActor;verticalLabelPosition=bottom;labelBackgroundColor=#ffffff;verticalAlign=top;html=1;" parent="1" vertex="1">
          <mxGeometry x="20" y="60" width="30" height="60" as="geometry"/>
        </mxCell>
        <mxCell id="NhgH__GdJye5LMjhZpeJ-6" value="run()" style="html=1;verticalAlign=bottom;endArrow=block;entryX=0;entryY=0;exitX=0.5;exitY=0.5;exitDx=0;exitDy=0;exitPerimeter=0;" parent="1" source="NhgH__GdJye5LMjhZpeJ-2" target="NhgH__GdJye5LMjhZpeJ-5" edge="1">
          <mxGeometry relative="1" as="geometry">
            <mxPoint x="80" y="100" as="sourcePoint"/>
          </mxGeometry>
        </mxCell>
        <mxCell id="NhgH__GdJye5LMjhZpeJ-8" value="CaseChangingCharInputStream" style="shape=umlLifeline;perimeter=lifelinePerimeter;whiteSpace=wrap;html=1;container=1;collapsible=0;recursiveResize=0;outlineConnect=0;" parent="1" vertex="1">
          <mxGeometry x="380" y="20" width="190" height="1253" as="geometry"/>
        </mxCell>
        <mxCell id="NhgH__GdJye5LMjhZpeJ-9" value="" style="html=1;points=[];perimeter=orthogonalPerimeter;" parent="NhgH__GdJye5LMjhZpeJ-8" vertex="1">
          <mxGeometry x="90" y="80" width="10" height="30" as="geometry"/>
        </mxCell>
        <mxCell id="NhgH__GdJye5LMjhZpeJ-10" value="init(sql)" style="html=1;verticalAlign=bottom;endArrow=block;entryX=0;entryY=0;" parent="1" source="NhgH__GdJye5LMjhZpeJ-5" target="NhgH__GdJye5LMjhZpeJ-9" edge="1">
          <mxGeometry relative="1" as="geometry">
            <mxPoint x="400" y="100" as="sourcePoint"/>
          </mxGeometry>
        </mxCell>
        <mxCell id="NhgH__GdJye5LMjhZpeJ-11" value="input_stream" style="html=1;verticalAlign=bottom;endArrow=open;dashed=1;endSize=8;exitX=0;exitY=0.95;" parent="1" source="NhgH__GdJye5LMjhZpeJ-9" target="NhgH__GdJye5LMjhZpeJ-5" edge="1">
          <mxGeometry relative="1" as="geometry">
            <mxPoint x="400" y="176" as="targetPoint"/>
          </mxGeometry>
        </mxCell>
        <mxCell id="NhgH__GdJye5LMjhZpeJ-12" value="MySqlLexer" style="shape=umlLifeline;perimeter=lifelinePerimeter;whiteSpace=wrap;html=1;container=1;collapsible=0;recursiveResize=0;outlineConnect=0;" parent="1" vertex="1">
          <mxGeometry x="660" y="20" width="100" height="1275" as="geometry"/>
        </mxCell>
        <mxCell id="NhgH__GdJye5LMjhZpeJ-13" value="" style="html=1;points=[];perimeter=orthogonalPerimeter;" parent="NhgH__GdJye5LMjhZpeJ-12" vertex="1">
          <mxGeometry x="45" y="140" width="10" height="90" as="geometry"/>
        </mxCell>
        <mxCell id="NhgH__GdJye5LMjhZpeJ-14" value="init(input_stream)" style="html=1;verticalAlign=bottom;endArrow=block;entryX=0;entryY=0;" parent="1" source="NhgH__GdJye5LMjhZpeJ-5" target="NhgH__GdJye5LMjhZpeJ-13" edge="1">
          <mxGeometry relative="1" as="geometry">
            <mxPoint x="635" y="140" as="sourcePoint"/>
          </mxGeometry>
        </mxCell>
        <mxCell id="NhgH__GdJye5LMjhZpeJ-15" value="lexer" style="html=1;verticalAlign=bottom;endArrow=open;dashed=1;endSize=8;exitX=0;exitY=0.95;" parent="1" source="NhgH__GdJye5LMjhZpeJ-13" target="NhgH__GdJye5LMjhZpeJ-5" edge="1">
          <mxGeometry relative="1" as="geometry">
            <mxPoint x="635" y="216" as="targetPoint"/>
          </mxGeometry>
        </mxCell>
        <mxCell id="NhgH__GdJye5LMjhZpeJ-16" value="LexerATNSimulator" style="shape=umlLifeline;perimeter=lifelinePerimeter;whiteSpace=wrap;html=1;container=1;collapsible=0;recursiveResize=0;outlineConnect=0;" parent="1" vertex="1">
          <mxGeometry x="860" y="20" width="140" height="1274" as="geometry"/>
        </mxCell>
        <mxCell id="NhgH__GdJye5LMjhZpeJ-17" value="" style="html=1;points=[];perimeter=orthogonalPerimeter;" parent="NhgH__GdJye5LMjhZpeJ-16" vertex="1">
          <mxGeometry x="65" y="150" width="10" height="43" as="geometry"/>
        </mxCell>
        <mxCell id="NhgH__GdJye5LMjhZpeJ-18" value="init()" style="html=1;verticalAlign=bottom;endArrow=block;entryX=0;entryY=0;" parent="1" source="NhgH__GdJye5LMjhZpeJ-13" target="NhgH__GdJye5LMjhZpeJ-17" edge="1">
          <mxGeometry relative="1" as="geometry">
            <mxPoint x="855" y="165" as="sourcePoint"/>
          </mxGeometry>
        </mxCell>
        <mxCell id="NhgH__GdJye5LMjhZpeJ-19" value="_interp" style="html=1;verticalAlign=bottom;endArrow=open;dashed=1;endSize=8;exitX=0;exitY=0.95;" parent="1" source="NhgH__GdJye5LMjhZpeJ-17" target="NhgH__GdJye5LMjhZpeJ-13" edge="1">
          <mxGeometry relative="1" as="geometry">
            <mxPoint x="855" y="241" as="targetPoint"/>
          </mxGeometry>
        </mxCell>
        <mxCell id="NhgH__GdJye5LMjhZpeJ-20" value="CommonTokenStream" style="shape=umlLifeline;perimeter=lifelinePerimeter;whiteSpace=wrap;html=1;container=1;collapsible=0;recursiveResize=0;outlineConnect=0;" parent="1" vertex="1">
          <mxGeometry x="1080" y="20" width="130" height="1366" as="geometry"/>
        </mxCell>
        <mxCell id="NhgH__GdJye5LMjhZpeJ-21" value="" style="html=1;points=[];perimeter=orthogonalPerimeter;" parent="NhgH__GdJye5LMjhZpeJ-20" vertex="1">
          <mxGeometry x="60" y="260" width="10" height="80" as="geometry"/>
        </mxCell>
        <mxCell id="NhgH__GdJye5LMjhZpeJ-22" value="init(lexer)" style="html=1;verticalAlign=bottom;endArrow=block;entryX=0;entryY=0;" parent="1" source="NhgH__GdJye5LMjhZpeJ-5" target="NhgH__GdJye5LMjhZpeJ-21" edge="1">
          <mxGeometry relative="1" as="geometry">
            <mxPoint x="690" y="300" as="sourcePoint"/>
          </mxGeometry>
        </mxCell>
        <mxCell id="NhgH__GdJye5LMjhZpeJ-23" value="token_stream" style="html=1;verticalAlign=bottom;endArrow=open;dashed=1;endSize=8;exitX=0;exitY=0.95;" parent="1" source="NhgH__GdJye5LMjhZpeJ-21" target="NhgH__GdJye5LMjhZpeJ-5" edge="1">
          <mxGeometry relative="1" as="geometry">
            <mxPoint x="1070" y="356" as="targetPoint"/>
          </mxGeometry>
        </mxCell>
        <mxCell id="NhgH__GdJye5LMjhZpeJ-24" value="MySqlParser" style="shape=umlLifeline;perimeter=lifelinePerimeter;whiteSpace=wrap;html=1;container=1;collapsible=0;recursiveResize=0;outlineConnect=0;" parent="1" vertex="1">
          <mxGeometry x="1290" y="20" width="100" height="1344" as="geometry"/>
        </mxCell>
        <mxCell id="NhgH__GdJye5LMjhZpeJ-25" value="" style="html=1;points=[];perimeter=orthogonalPerimeter;" parent="NhgH__GdJye5LMjhZpeJ-24" vertex="1">
          <mxGeometry x="46" y="370" width="10" height="45" as="geometry"/>
        </mxCell>
        <mxCell id="NhgH__GdJye5LMjhZpeJ-28" value="" style="html=1;points=[];perimeter=orthogonalPerimeter;" parent="NhgH__GdJye5LMjhZpeJ-24" vertex="1">
          <mxGeometry x="46" y="460" width="10" height="161" as="geometry"/>
        </mxCell>
        <mxCell id="NhgH__GdJye5LMjhZpeJ-35" value="" style="html=1;points=[];perimeter=orthogonalPerimeter;" parent="NhgH__GdJye5LMjhZpeJ-24" vertex="1">
          <mxGeometry x="51" y="553" width="10" height="40" as="geometry"/>
        </mxCell>
        <mxCell id="NhgH__GdJye5LMjhZpeJ-36" value="enterRule()" style="edgeStyle=orthogonalEdgeStyle;html=1;align=left;spacingLeft=2;endArrow=block;rounded=0;entryX=1;entryY=0;" parent="NhgH__GdJye5LMjhZpeJ-24" target="NhgH__GdJye5LMjhZpeJ-35" edge="1">
          <mxGeometry relative="1" as="geometry">
            <mxPoint x="56" y="533" as="sourcePoint"/>
            <Array as="points">
              <mxPoint x="81" y="533"/>
            </Array>
          </mxGeometry>
        </mxCell>
        <mxCell id="NhgH__GdJye5LMjhZpeJ-26" value="init(token_stream)" style="html=1;verticalAlign=bottom;endArrow=block;entryX=0;entryY=0;" parent="1" source="NhgH__GdJye5LMjhZpeJ-5" target="NhgH__GdJye5LMjhZpeJ-25" edge="1">
          <mxGeometry relative="1" as="geometry">
            <mxPoint x="1266" y="390" as="sourcePoint"/>
          </mxGeometry>
        </mxCell>
        <mxCell id="NhgH__GdJye5LMjhZpeJ-27" value="parser" style="html=1;verticalAlign=bottom;endArrow=open;dashed=1;endSize=8;exitX=0;exitY=0.95;" parent="1" source="NhgH__GdJye5LMjhZpeJ-25" target="NhgH__GdJye5LMjhZpeJ-5" edge="1">
          <mxGeometry relative="1" as="geometry">
            <mxPoint x="1266" y="466" as="targetPoint"/>
          </mxGeometry>
        </mxCell>
        <mxCell id="NhgH__GdJye5LMjhZpeJ-29" value="parser.root()" style="html=1;verticalAlign=bottom;endArrow=block;entryX=0;entryY=0;" parent="1" source="NhgH__GdJye5LMjhZpeJ-5" target="NhgH__GdJye5LMjhZpeJ-28" edge="1">
          <mxGeometry relative="1" as="geometry">
            <mxPoint x="1266" y="480" as="sourcePoint"/>
          </mxGeometry>
        </mxCell>
        <mxCell id="NhgH__GdJye5LMjhZpeJ-31" value="MySqlParser.RootContext" style="shape=umlLifeline;perimeter=lifelinePerimeter;whiteSpace=wrap;html=1;container=1;collapsible=0;recursiveResize=0;outlineConnect=0;" parent="1" vertex="1">
          <mxGeometry x="1513" y="20" width="155" height="1342" as="geometry"/>
        </mxCell>
        <mxCell id="NhgH__GdJye5LMjhZpeJ-32" value="" style="html=1;points=[];perimeter=orthogonalPerimeter;" parent="NhgH__GdJye5LMjhZpeJ-31" vertex="1">
          <mxGeometry x="73" y="474" width="10" height="30" as="geometry"/>
        </mxCell>
        <mxCell id="hcX4nIzpXmfOdBlbIvtp-6" value="" style="html=1;points=[];perimeter=orthogonalPerimeter;" vertex="1" parent="NhgH__GdJye5LMjhZpeJ-31">
          <mxGeometry x="72.5" y="906" width="10" height="31" as="geometry"/>
        </mxCell>
        <mxCell id="hcX4nIzpXmfOdBlbIvtp-12" value="" style="html=1;points=[];perimeter=orthogonalPerimeter;" vertex="1" parent="NhgH__GdJye5LMjhZpeJ-31">
          <mxGeometry x="73" y="1056" width="10" height="105" as="geometry"/>
        </mxCell>
        <mxCell id="NhgH__GdJye5LMjhZpeJ-33" value="init()" style="html=1;verticalAlign=bottom;endArrow=block;entryX=0;entryY=0;" parent="1" source="NhgH__GdJye5LMjhZpeJ-28" target="NhgH__GdJye5LMjhZpeJ-32" edge="1">
          <mxGeometry relative="1" as="geometry">
            <mxPoint x="1488" y="485" as="sourcePoint"/>
          </mxGeometry>
        </mxCell>
        <mxCell id="NhgH__GdJye5LMjhZpeJ-34" value="localctx" style="html=1;verticalAlign=bottom;endArrow=open;dashed=1;endSize=8;exitX=0;exitY=0.95;" parent="1" source="NhgH__GdJye5LMjhZpeJ-32" target="NhgH__GdJye5LMjhZpeJ-28" edge="1">
          <mxGeometry relative="1" as="geometry">
            <mxPoint x="1488" y="561" as="targetPoint"/>
          </mxGeometry>
        </mxCell>
        <mxCell id="NhgH__GdJye5LMjhZpeJ-37" value="tree" style="html=1;verticalAlign=bottom;endArrow=open;dashed=1;endSize=8;exitX=0.4;exitY=1;exitDx=0;exitDy=0;exitPerimeter=0;" parent="1" source="NhgH__GdJye5LMjhZpeJ-28" target="NhgH__GdJye5LMjhZpeJ-5" edge="1">
          <mxGeometry relative="1" as="geometry">
            <mxPoint x="1319" y="651" as="sourcePoint"/>
            <mxPoint x="236" y="656" as="targetPoint"/>
          </mxGeometry>
        </mxCell>
        <mxCell id="NhgH__GdJye5LMjhZpeJ-38" value="MyListener" style="shape=umlLifeline;perimeter=lifelinePerimeter;whiteSpace=wrap;html=1;container=1;collapsible=0;recursiveResize=0;outlineConnect=0;" parent="1" vertex="1">
          <mxGeometry x="1772" y="20" width="100" height="1343" as="geometry"/>
        </mxCell>
        <mxCell id="NhgH__GdJye5LMjhZpeJ-39" value="" style="html=1;points=[];perimeter=orthogonalPerimeter;" parent="NhgH__GdJye5LMjhZpeJ-38" vertex="1">
          <mxGeometry x="45" y="652" width="10" height="47" as="geometry"/>
        </mxCell>
        <mxCell id="hcX4nIzpXmfOdBlbIvtp-9" value="" style="html=1;points=[];perimeter=orthogonalPerimeter;" vertex="1" parent="NhgH__GdJye5LMjhZpeJ-38">
          <mxGeometry x="45" y="959" width="10" height="60" as="geometry"/>
        </mxCell>
        <mxCell id="hcX4nIzpXmfOdBlbIvtp-15" value="" style="html=1;points=[];perimeter=orthogonalPerimeter;" vertex="1" parent="NhgH__GdJye5LMjhZpeJ-38">
          <mxGeometry x="45" y="1082" width="10" height="50" as="geometry"/>
        </mxCell>
        <mxCell id="NhgH__GdJye5LMjhZpeJ-40" value="init()" style="html=1;verticalAlign=bottom;endArrow=block;entryX=0;entryY=0;" parent="1" target="NhgH__GdJye5LMjhZpeJ-39" edge="1">
          <mxGeometry relative="1" as="geometry">
            <mxPoint x="205" y="671" as="sourcePoint"/>
          </mxGeometry>
        </mxCell>
        <mxCell id="NhgH__GdJye5LMjhZpeJ-41" value="printer" style="html=1;verticalAlign=bottom;endArrow=open;dashed=1;endSize=8;exitX=0;exitY=0.95;" parent="1" source="NhgH__GdJye5LMjhZpeJ-39" target="NhgH__GdJye5LMjhZpeJ-5" edge="1">
          <mxGeometry relative="1" as="geometry">
            <mxPoint x="205" y="747" as="targetPoint"/>
          </mxGeometry>
        </mxCell>
        <mxCell id="NhgH__GdJye5LMjhZpeJ-46" value="&lt;div&gt;ParseTreeWalker&lt;/div&gt;" style="shape=umlLifeline;perimeter=lifelinePerimeter;whiteSpace=wrap;html=1;container=1;collapsible=0;recursiveResize=0;outlineConnect=0;" parent="1" vertex="1">
          <mxGeometry x="1963" y="20" width="100" height="1438" as="geometry"/>
        </mxCell>
        <mxCell id="NhgH__GdJye5LMjhZpeJ-47" value="" style="html=1;points=[];perimeter=orthogonalPerimeter;" parent="NhgH__GdJye5LMjhZpeJ-46" vertex="1">
          <mxGeometry x="45" y="731" width="10" height="80" as="geometry"/>
        </mxCell>
        <mxCell id="NhgH__GdJye5LMjhZpeJ-50" value="" style="html=1;points=[];perimeter=orthogonalPerimeter;" parent="NhgH__GdJye5LMjhZpeJ-46" vertex="1">
          <mxGeometry x="45" y="864" width="10" height="340" as="geometry"/>
        </mxCell>
        <mxCell id="hcX4nIzpXmfOdBlbIvtp-1" value="" style="html=1;points=[];perimeter=orthogonalPerimeter;" vertex="1" parent="NhgH__GdJye5LMjhZpeJ-46">
          <mxGeometry x="50" y="898" width="10" height="271" as="geometry"/>
        </mxCell>
        <mxCell id="hcX4nIzpXmfOdBlbIvtp-2" value="enterRule()" style="edgeStyle=orthogonalEdgeStyle;html=1;align=left;spacingLeft=2;endArrow=block;rounded=0;entryX=1;entryY=0;" edge="1" target="hcX4nIzpXmfOdBlbIvtp-1" parent="NhgH__GdJye5LMjhZpeJ-46">
          <mxGeometry relative="1" as="geometry">
            <mxPoint x="55" y="878" as="sourcePoint"/>
            <Array as="points">
              <mxPoint x="80" y="878"/>
            </Array>
          </mxGeometry>
        </mxCell>
        <mxCell id="NhgH__GdJye5LMjhZpeJ-48" value="init()" style="html=1;verticalAlign=bottom;endArrow=block;entryX=0;entryY=0;" parent="1" source="NhgH__GdJye5LMjhZpeJ-5" target="NhgH__GdJye5LMjhZpeJ-47" edge="1">
          <mxGeometry relative="1" as="geometry">
            <mxPoint x="1938" y="736" as="sourcePoint"/>
          </mxGeometry>
        </mxCell>
        <mxCell id="NhgH__GdJye5LMjhZpeJ-49" value="walker" style="html=1;verticalAlign=bottom;endArrow=open;dashed=1;endSize=8;exitX=0;exitY=0.95;" parent="1" source="NhgH__GdJye5LMjhZpeJ-47" target="NhgH__GdJye5LMjhZpeJ-5" edge="1">
          <mxGeometry relative="1" as="geometry">
            <mxPoint x="1938" y="812" as="targetPoint"/>
          </mxGeometry>
        </mxCell>
        <mxCell id="NhgH__GdJye5LMjhZpeJ-51" value="walk(printer, tree)" style="html=1;verticalAlign=bottom;endArrow=block;entryX=0;entryY=0;" parent="1" source="NhgH__GdJye5LMjhZpeJ-5" target="NhgH__GdJye5LMjhZpeJ-50" edge="1">
          <mxGeometry relative="1" as="geometry">
            <mxPoint x="1938" y="884" as="sourcePoint"/>
          </mxGeometry>
        </mxCell>
        <mxCell id="hcX4nIzpXmfOdBlbIvtp-7" value="getRuleContext()" style="html=1;verticalAlign=bottom;endArrow=block;entryX=1;entryY=0;" edge="1" target="hcX4nIzpXmfOdBlbIvtp-6" parent="1" source="hcX4nIzpXmfOdBlbIvtp-1">
          <mxGeometry relative="1" as="geometry">
            <mxPoint x="1656" y="932" as="sourcePoint"/>
          </mxGeometry>
        </mxCell>
        <mxCell id="hcX4nIzpXmfOdBlbIvtp-8" value="ctx" style="html=1;verticalAlign=bottom;endArrow=open;dashed=1;endSize=8;exitX=1;exitY=0.95;" edge="1" source="hcX4nIzpXmfOdBlbIvtp-6" parent="1" target="hcX4nIzpXmfOdBlbIvtp-1">
          <mxGeometry relative="1" as="geometry">
            <mxPoint x="1656" y="989" as="targetPoint"/>
          </mxGeometry>
        </mxCell>
        <mxCell id="hcX4nIzpXmfOdBlbIvtp-10" value="enterEveryRule(ctx)" style="html=1;verticalAlign=bottom;endArrow=block;entryX=1;entryY=0;" edge="1" target="hcX4nIzpXmfOdBlbIvtp-9" parent="1" source="hcX4nIzpXmfOdBlbIvtp-1">
          <mxGeometry relative="1" as="geometry">
            <mxPoint x="1887" y="979" as="sourcePoint"/>
          </mxGeometry>
        </mxCell>
        <mxCell id="hcX4nIzpXmfOdBlbIvtp-13" value="enterRule(listener)" style="html=1;verticalAlign=bottom;endArrow=block;entryX=1;entryY=0;" edge="1" target="hcX4nIzpXmfOdBlbIvtp-12" parent="1" source="hcX4nIzpXmfOdBlbIvtp-1">
          <mxGeometry relative="1" as="geometry">
            <mxPoint x="1656" y="1076" as="sourcePoint"/>
          </mxGeometry>
        </mxCell>
        <mxCell id="hcX4nIzpXmfOdBlbIvtp-16" value="enterRoot(self)" style="html=1;verticalAlign=bottom;endArrow=block;entryX=0;entryY=0;" edge="1" target="hcX4nIzpXmfOdBlbIvtp-15" parent="1" source="hcX4nIzpXmfOdBlbIvtp-12">
          <mxGeometry relative="1" as="geometry">
            <mxPoint x="1747" y="1102" as="sourcePoint"/>
          </mxGeometry>
        </mxCell>
      </root>
    </mxGraphModel>
  </diagram>
</mxfile>
